<svg width="1200" height="750" viewBox="0 0 1200 750" fill="none" xmlns="http://www.w3.org/2000/svg">
  <!-- Window frame with shadow -->
  <defs>
    <filter id="shadow" x="-20%" y="-20%" width="140%" height="140%">
      <feDropShadow dx="0" dy="8" stdDeviation="20" flood-color="#000" flood-opacity="0.4"/>
    </filter>
  </defs>

  <rect x="40" y="40" width="1120" height="670" rx="12" fill="#0d1117" filter="url(#shadow)"/>
  <rect x="40" y="40" width="1120" height="48" rx="12" fill="#161b22"/>
  <rect x="40" y="76" width="1120" height="12" fill="#161b22"/>

  <!-- Window controls -->
  <circle cx="72" cy="64" r="7" fill="#ff5f57"/>
  <circle cx="96" cy="64" r="7" fill="#febc2e"/>
  <circle cx="120" cy="64" r="7" fill="#28c840"/>

  <!-- Title -->
  <text x="600" y="70" font-family="system-ui, sans-serif" font-size="16" fill="#8b949e" text-anchor="middle">GitDesk - PR Review Inbox</text>

  <!-- Tabs -->
  <rect x="60" y="105" width="150" height="38" rx="6" fill="#00d9ff" fill-opacity="0.15"/>
  <text x="135" y="130" font-family="system-ui, sans-serif" font-size="15" fill="#00d9ff" text-anchor="middle" font-weight="600">Review Requests</text>
  <text x="280" y="130" font-family="system-ui, sans-serif" font-size="15" fill="#8b949e" text-anchor="middle">Created</text>

  <!-- Org filter dropdown -->
  <rect x="920" y="105" width="200" height="38" rx="6" fill="#21262d" stroke="#30363d"/>
  <text x="1020" y="130" font-family="system-ui, sans-serif" font-size="14" fill="#c9d1d9" text-anchor="middle">All Organizations</text>
  <path d="M1100 122 L1108 130 L1116 122" stroke="#8b949e" stroke-width="2" fill="none"/>

  <!-- Section header -->
  <text x="60" y="180" font-family="system-ui, sans-serif" font-size="13" fill="#8b949e" font-weight="600">PENDING REVIEWS</text>

  <!-- PR Card 1 -->
  <rect x="60" y="200" width="1060" height="110" rx="10" fill="#161b22" stroke="#30363d"/>
  <circle cx="105" cy="255" r="24" fill="#238636"/>
  <text x="105" y="262" font-family="system-ui, sans-serif" font-size="18" fill="white" text-anchor="middle" font-weight="600">PR</text>
  <text x="150" y="235" font-family="system-ui, sans-serif" font-size="17" fill="#e6edf3" font-weight="600">feat: Add dark mode support for the entire application</text>
  <text x="150" y="260" font-family="system-ui, sans-serif" font-size="14" fill="#8b949e">openza/gitdesk #42 opened by johndoe</text>
  <rect x="150" y="275" width="70" height="22" rx="11" fill="#238636" fill-opacity="0.2"/>
  <text x="185" y="290" font-family="system-ui, sans-serif" font-size="12" fill="#3fb950" text-anchor="middle">feature</text>
  <rect x="230" y="275" width="90" height="22" rx="11" fill="#1f6feb" fill-opacity="0.2"/>
  <text x="275" y="290" font-family="system-ui, sans-serif" font-size="12" fill="#58a6ff" text-anchor="middle">enhancement</text>
  <text x="1050" y="255" font-family="system-ui, sans-serif" font-size="14" fill="#8b949e" text-anchor="end">2 hours ago</text>

  <!-- PR Card 2 -->
  <rect x="60" y="325" width="1060" height="110" rx="10" fill="#161b22" stroke="#30363d"/>
  <circle cx="105" cy="380" r="24" fill="#a371f7"/>
  <text x="105" y="387" font-family="system-ui, sans-serif" font-size="18" fill="white" text-anchor="middle" font-weight="600">PR</text>
  <text x="150" y="360" font-family="system-ui, sans-serif" font-size="17" fill="#e6edf3" font-weight="600">fix: Resolve OAuth token refresh causing logout</text>
  <text x="150" y="385" font-family="system-ui, sans-serif" font-size="14" fill="#8b949e">openza/gitdesk #41 opened by janedoe</text>
  <rect x="150" y="400" width="45" height="22" rx="11" fill="#da3633" fill-opacity="0.2"/>
  <text x="172" y="415" font-family="system-ui, sans-serif" font-size="12" fill="#f85149" text-anchor="middle">bug</text>
  <rect x="205" y="400" width="55" height="22" rx="11" fill="#f0883e" fill-opacity="0.2"/>
  <text x="232" y="415" font-family="system-ui, sans-serif" font-size="12" fill="#f0883e" text-anchor="middle">urgent</text>
  <text x="1050" y="380" font-family="system-ui, sans-serif" font-size="14" fill="#8b949e" text-anchor="end">5 hours ago</text>

  <!-- PR Card 3 -->
  <rect x="60" y="450" width="1060" height="110" rx="10" fill="#161b22" stroke="#30363d"/>
  <circle cx="105" cy="505" r="24" fill="#00d9ff"/>
  <text x="105" y="512" font-family="system-ui, sans-serif" font-size="18" fill="white" text-anchor="middle" font-weight="600">PR</text>
  <text x="150" y="485" font-family="system-ui, sans-serif" font-size="17" fill="#e6edf3" font-weight="600">docs: Update installation guide for Flatpak</text>
  <text x="150" y="510" font-family="system-ui, sans-serif" font-size="14" fill="#8b949e">openza/gitdesk #40 opened by contributor</text>
  <rect x="150" y="525" width="100" height="22" rx="11" fill="#1f6feb" fill-opacity="0.2"/>
  <text x="200" y="540" font-family="system-ui, sans-serif" font-size="12" fill="#58a6ff" text-anchor="middle">documentation</text>
  <text x="1050" y="505" font-family="system-ui, sans-serif" font-size="14" fill="#8b949e" text-anchor="end">1 day ago</text>

  <!-- Status bar -->
  <rect x="40" y="580" width="1120" height="130" rx="0 0 12 12" fill="#0d1117"/>
  <rect x="40" y="580" width="1120" height="1" fill="#30363d"/>
  <text x="600" y="640" font-family="system-ui, sans-serif" font-size="15" fill="#8b949e" text-anchor="middle">3 pull requests awaiting your review</text>

  <!-- Refresh indicator -->
  <text x="600" y="670" font-family="system-ui, sans-serif" font-size="12" fill="#484f58" text-anchor="middle">Last updated: just now</text>
</svg>
